<svg id="Ebene_1" data-name="Ebene 1" xmlns="http://www.w3.org/2000/svg" viewBox="0 0 423.92 398.32"><defs><style>.cls-1{fill:#b17f4a;}.cls-2{fill:#008d36;}.cls-3{fill:#fff;}.cls-4{fill:#e6332a;}.cls-5,.cls-6{fill:none;stroke:#1d1d1b;stroke-linecap:round;stroke-linejoin:round;}.cls-5{stroke-width:2px;}.cls-7{font-size:69.22px;font-family:OpineHeavy;}</style></defs><rect class="cls-1" x="30.11" y="171.21" width="220.47" height="28.47"/><rect class="cls-2" x="163.17" y="171.21" width="19.32" height="28.47"/><rect class="cls-3" x="182.49" y="171.21" width="19.32" height="28.47"/><rect class="cls-4" x="201.81" y="171.21" width="19.32" height="28.47"/><path class="cls-5" d="M272.81,184.23c-13.13-4-22.5-14.36-22.5-26.56s9.37-22.59,22.5-26.56" transform="translate(-180.42 -26)"/><path class="cls-5" d="M272.82,131.11c13.13-4,22.5-14.37,22.5-26.56S286,82,272.81,78" transform="translate(-180.42 -26)"/><path class="cls-5" d="M317.12,80.12c-13.13-4-22.5-14.36-22.5-26.56S304,31,317.12,27" transform="translate(-180.42 -26)"/><path class="cls-5" d="M317.12,184.23c-13.13-4-22.5-14.36-22.5-26.56s9.37-22.59,22.5-26.56" transform="translate(-180.42 -26)"/><path class="cls-5" d="M314,132.2c13.13-4,22.5-14.36,22.5-26.56S327.14,83.05,314,79.08" transform="translate(-180.42 -26)"/><path class="cls-5" d="M361.42,184.23c-13.13-4-22.5-14.36-22.5-26.56s9.37-22.59,22.5-26.56" transform="translate(-180.42 -26)"/><path class="cls-5" d="M361.42,131.11c13.13-4,22.5-14.37,22.5-26.56S374.55,82,361.42,78" transform="translate(-180.42 -26)"/><text x="-180.42" y="-26"/><text x="-180.42" y="-26"/><rect class="cls-6" x="25.21" y="167.44" width="222.6" height="29.09"/><path class="cls-6" d="M331.63,197.21c0,6.69-6.58,12.11-14.69,12.11s-14.7-5.42-14.7-12.11" transform="translate(-180.42 -26)"/><line class="cls-6" x1="30.11" y1="200.83" x2="242.99" y2="200.83"/><text x="-180.42" y="-26"/><text class="cls-7" transform="translate(0 274.73) scale(0.71 1)">Pizza Porto</text><text x="-180.42" y="-26"/><text x="-180.42" y="-26"/><text x="-180.42" y="-26"/></svg>